#!OML:ASF I:\Actors\actors\Patient Classification 1\Patient 1\Session 1\Subject1.ASF
:FULLY-SPECIFIED
:DEGREES
605
root -1.01688 17.7421 8.63356 15.0608 8.86363 -7.96922
lowerback 1.1094 4.48651 0.735335
upperback -13.0897 5.82922 -4.14426
thorax -14.4558 2.42717 -5.79246
lowerneck -14.7647 -4.83388 -3.00212
upperneck 29.0115 -11.1461 16.0003
head 13.4762 -3.19814 5.04049
rclavicle -7.07673e-014 -3.33958e-014
rhumerus 28.8615 67.3602 -54.8767
rradius 57.6372
rwrist -40.7586
rhand -2.27182 -39.1928
rfingers 7.12502
rthumb 23.4127 -67.7885
lclavicle -7.07673e-014 -3.33958e-014
lhumerus 6.96371 -50.6769 39.4725
lradius 64.2746
lwrist 75.9786
lhand -31.2759 -12.4756
lfingers 7.12502
lthumb -4.54959 17.4555
rfemur -7.48248 26.3288 25.7006
rtibia -0.0281632
rfoot -14.8122 -31.6063
rtoes 11.6068
lfemur -9.32455 -42.6614 -1.96688
ltibia -0.620252
lfoot -13.4537 48.1653
ltoes 2.34176
606
root -1.01915 17.7412 8.62721 15.1415 8.82331 -7.99297
lowerback 1.1028 4.39389 0.639655
upperback -13.1947 5.707 -4.02392
thorax -14.6156 2.38156 -5.60307
lowerneck -14.6499 -4.7599 -3.0392
upperneck 28.7949 -11.0187 16.096
head 13.3507 -3.15212 5.09567
rclavicle -5.88403e-014 -2.06736e-014
rhumerus 30.2815 67.9202 -53.3564
rradius 57.961
rwrist -41.1409
rhand -2.58541 -39.2717
rfingers 7.12502
rthumb 23.1118 -67.9055
lclavicle -5.88403e-014 -2.06736e-014
lhumerus 6.45051 -50.4598 39.8041
lradius 64.3626
lwrist 75.9322
lhand -31.31 -12.5529
lfingers 7.12502
lthumb -4.58248 17.3775
rfemur -7.61331 26.2957 25.6643
rtibia -0.0423951
rfoot -14.758 -31.5169
rtoes 11.6342
lfemur -9.45371 -42.7351 -1.82863
ltibia -0.625882
lfoot -13.5644 48.2877
ltoes 2.44416
607
root -1.02081 17.7406 8.62159 15.2136 8.77064 -7.989
lowerback 1.12623 4.3358 0.542008
upperback -13.2931 5.62114 -3.99745
thorax -14.7737 2.34657 -5.5238
lowerneck -14.5791 -4.73842 -3.06247
upperneck 28.5657 -11.0329 16.378
head 13.2667 -3.14211 5.20096
rclavicle 4.53229e-014 -1.59028e-014
rhumerus 30.9163 68.1267 -52.8198
rradius 58.0706
rwrist -41.1715
rhand -2.78376 -39.3935
rfingers 7.12502
rthumb 22.9215 -68.051
lclavicle 4.53229e-014 -1.59028e-014
lhumerus 6.3523 -50.3729 39.763
lradius 64.4076
lwrist 75.8775
lhand -31.2423 -12.6479
lfingers 7.12502
lthumb -4.51711 17.284
rfemur -7.72303 26.3085 25.6018
rtibia -0.0507215
rfoot -14.739 -31.4863
rtoes 11.7661
lfemur -9.58126 -42.7882 -1.74196
ltibia -0.597327
lfoot -13.6483 48.3816
ltoes 2.5634
608
root -1.02139 17.741 8.61582 15.2914 8.68447 -7.98314
lowerback 1.15569 4.32136 0.481309
upperback -13.3954 5.59452 -4.00707
thorax -14.9281 2.33309 -5.51312
lowerneck -14.6527 -5.09922 -3.6344
upperneck 28.4709 -11.6024 16.9719
head 13.4128 -3.3892 5.4495
rclavicle 2.78299e-015 1.11319e-014
rhumerus 31.1716 68.1881 -52.6826
rradius 58.0715
rwrist -41.1693
rhand -2.98871 -39.4929
rfingers 7.12502
rthumb 22.7248 -68.1746
lclavicle 2.78299e-015 1.11319e-014
lhumerus 6.3293 -50.2962 39.7042
lradius 64.4867
lwrist 75.7454
lhand -31.2035 -12.5929
lfingers 7.12502
lthumb -4.47964 17.3397
rfemur -7.86926 26.2998 25.5194
rtibia -0.0177407
rfoot -14.6704 -31.4157
rtoes 11.7012
lfemur -9.69753 -42.9549 -1.66277
ltibia -0.566773
lfoot -13.7909 48.5881
ltoes 2.83001
609
root -1.01976 17.7425 8.61007 15.3731 8.6059 -7.97885
lowerback 1.19211 4.30852 0.455083
upperback -13.5074 5.57531 -4.00069
thorax -15.0971 2.31966 -5.50627
lowerneck -14.6552 -5.22236 -3.56783
upperneck 28.3989 -11.7547 16.8364
head 13.3879 -3.46996 5.34866
rclavicle -6.04305e-014 -2.8625e-014
rhumerus 30.6186 68.0589 -53.4099
rradius 57.9321
rwrist -40.9474
rhand -3.03371 -39.5812
rfingers 7.12502
rthumb 22.6816 -68.2682
lclavicle -6.04305e-014 -2.8625e-014
lhumerus 6.14983 -50.1555 39.8348
lradius 64.5812
lwrist 75.5828
lhand -31.21 -12.5035
lfingers 7.12502
lthumb -4.48593 17.429
rfemur -8.02844 26.2204 25.4406
rtibia 0.0207812
rfoot -14.5413 -31.2932
rtoes 11.3199
lfemur -9.81818 -43.1338 -1.58231
ltibia -0.537945
lfoot -14.0903 48.7992
ltoes 3.27989
610
root -1.01668 17.7431 8.60591 15.431 8.47605 -7.96181
lowerback 1.2323 4.36602 0.441717
upperback -13.5941 5.64227 -4.09316
thorax -15.2184 2.33985 -5.62557
lowerneck -14.1405 -4.93807 -2.69532
upperneck 27.5713 -11.2738 16.4412
head 12.7728 -3.27713 5.06189
rclavicle -1.31198e-014 2.70347e-014
rhumerus 29.1011 67.4998 -55.2049
rradius 57.6206
rwrist -40.4093
rhand -2.90439 -39.7355
rfingers 7.12502
rthumb 22.8057 -68.4073
lclavicle -1.31198e-014 2.70347e-014
lhumerus 6.39629 -50.1335 39.6658
lradius 64.6065
lwrist 75.5906
lhand -31.3039 -12.4802
lfingers 7.12502
lthumb -4.57663 17.4503
rfemur -8.1187 26.1777 25.3726
rtibia 0.0196317
rfoot -14.4075 -31.1611
rtoes 10.8541
lfemur -9.84383 -43.1999 -1.60077
ltibia -0.527691
lfoot -14.4223 48.9536
ltoes 3.63256
611
root -1.01517 17.7425 8.60242 15.474 8.29121 -7.95789
lowerback 1.2502 4.50767 0.432902
upperback -13.6574 5.81293 -4.29232
thorax -15.2745 2.40325 -5.87513
lowerneck -14.4826 -5.63641 -2.8836
upperneck 27.4472 -12.3956 16.8431
head 13.0005 -3.73798 5.05932
rclavicle -2.42517e-014 6.36111e-015
rhumerus 28.0016 66.8664 -56.4925
rradius 57.4
rwrist -40.0948
rhand -2.77648 -39.8108
rfingers 7.12502
rthumb 22.9285 -68.4674
lclavicle -2.42517e-014 6.36111e-015
lhumerus 7.24366 -50.3819 38.9953
lradius 64.5767
lwrist 75.8076
lhand -31.4509 -12.5403
lfingers 7.12502
lthumb -4.71849 17.3872
rfemur -8.18509 26.2945 25.3171
rtibia 0.0186519
rfoot -14.3135 -31.1111
rtoes 10.5795
lfemur -9.80316 -43.1973 -1.64253
ltibia -0.551306
lfoot -14.6246 49.0981
ltoes 3.8837
612
root -1.01468 17.7419 8.59835 15.4913 8.12922 -7.99865
lowerback 1.23155 4.46001 0.359682
upperback -13.7204 5.7518 -4.18645
thorax -15.3662 2.3873 -5.71395
lowerneck -14.3331 -5.69863 -3.01558
upperneck 27.1104 -12.4844 17.1388
head 12.8779 -3.78504 5.17085
rclavicle 6.16232e-014 -3.18055e-014
rhumerus 28.5772 67.0804 -56.0046
rradius 57.4227
rwrist -40.0382
rhand -2.69458 -39.7959
rfingers 7.12502
rthumb 23.0071 -68.4428
lclavicle 6.16232e-014 -3.18055e-014
lhumerus 7.07825 -50.3286 39.0722
lradius 64.5788
lwrist 75.9013
lhand -31.3185 -12.6103
lfingers 7.12502
lthumb -4.59069 17.3199
rfemur -8.24502 26.4553 25.3155
rtibia 0.0486509
rfoot -14.2996 -31.0982
rtoes 10.5904
lfemur -9.77216 -43.1489 -1.62406
ltibia -0.561568
lfoot -14.8719 49.1818
ltoes 4.32994
613
root -1.01208 17.7405 8.59413 15.4925 7.97982 -8.02233
lowerback 1.21442 4.28901 0.26346
upperback -13.7812 5.54036 -3.89303
thorax -15.4903 2.31685 -5.3102
lowerneck -14.2143 -5.65254 -3.43712
upperneck 27.0322 -12.3541 17.3356
head 12.8452 -3.76278 5.34568
rclavicle 3.33958e-014 4.77083e-015
rhumerus 29.7744 67.6766 -54.8656
rradius 57.5592
rwrist -39.9212
rhand -2.67201 -39.8443
rfingers 7.12502
rthumb 23.0287 -68.4884
lclavicle 3.33958e-014 4.77083e-015
lhumerus 6.18867 -50.0284 39.7137
lradius 64.6853
lwrist 75.8028
lhand -31.1342 -12.6739
lfingers 7.12502
lthumb -4.41271 17.2601
rfemur -8.28625 26.4653 25.2998
rtibia 0.0769069
rfoot -14.2665 -30.9815
rtoes 10.6879
lfemur -9.7398 -43.1207 -1.65555
ltibia -0.534949
lfoot -15.2004 49.2644
ltoes 4.92169
614
root -1.00856 17.7393 8.59017 15.4911 7.77868 -8.00361
lowerback 1.24529 4.26609 0.235715
upperback -13.838 5.51252 -3.82855
thorax -15.594 2.30729 -5.22894
lowerneck -13.9845 -5.71796 -3.41393
upperneck 26.5555 -12.3837 17.3879
head 12.6067 -3.80847 5.33166
rclavicle 1.07344e-014 4.45278e-014
rhumerus 30.0876 67.7194 -54.6567
rradius 57.606
rwrist -39.8502
rhand -2.74976 -39.9971
rfingers 7.12502
rthumb 22.9541 -68.6505
lclavicle 1.07344e-014 4.45278e-014
lhumerus 6.09063 -50.0846 39.7334
lradius 64.8415
lwrist 75.6167
lhand -31.1833 -12.7034
lfingers 7.12502
lthumb -4.46011 17.2296
rfemur -8.31023 26.3931 25.2325
rtibia 0.0754777
rfoot -14.1322 -30.7803
rtoes 10.6505
lfemur -9.62903 -43.1809 -1.78881
ltibia -0.546574
lfoot -15.5987 49.4531
ltoes 5.57183
